<?xml version="1.0" encoding="UTF-8"?>
<svg version="1.1" xmlns="http://www.w3.org/2000/svg" width="100" height="100">
<path d="M0 0 C4.88301653 2.27874105 9.46501314 4.98659271 14.08984375 7.74609375 C16.22352306 9.0059458 18.35765471 10.26503202 20.4921875 11.5234375 C21.6044873 12.18069824 22.71678711 12.83795898 23.86279297 13.51513672 C30.89001527 17.65531179 37.97510463 21.69685167 45.04785156 25.75854492 C46.0890918 26.35771729 47.13033203 26.95688965 48.203125 27.57421875 C49.12391846 28.10305664 50.04471191 28.63189453 50.9934082 29.17675781 C52.81047142 30.24684186 54.58526321 31.38887339 56.33984375 32.55859375 C56.66796875 34.6875 56.66796875 34.6875 56.58984375 37.12109375 C56.574375 37.92675781 56.55890625 38.73242188 56.54296875 39.5625 C56.33984375 41.55859375 56.33984375 41.55859375 55.33984375 42.55859375 C55.13284812 44.05356217 54.97305116 45.55525295 54.83984375 47.05859375 C54.45095486 51.44748264 54.45095486 51.44748264 53.33984375 52.55859375 C53.40510254 53.55052734 53.40510254 53.55052734 53.47167969 54.5625 C53.59331422 57.59757114 53.38497761 59.69122848 52.33984375 62.55859375 C48.53141239 65.9913739 44.12170568 68.22775017 39.58984375 70.55859375 C38.3823381 71.21549497 37.17658414 71.87562695 35.97265625 72.5390625 C31.17819377 75.14008521 26.44296498 77.61813602 21.33984375 79.55859375 C20.38464844 78.72457031 19.42945313 77.89054687 18.4453125 77.03125 C9.7326465 69.43847759 9.7326465 69.43847759 0.83984375 62.05859375 C-4.23773994 57.94816886 -9.16019364 53.67527437 -14.08251953 49.38183594 C-18.87408947 45.21278795 -23.7436333 41.16073914 -28.68359375 37.16796875 C-31.92245276 34.53079501 -32.13780718 32.80746513 -32.61425781 28.57739258 C-33.31672902 18.48087423 -33.31672902 18.48087423 -30.18066406 14.84179688 C-26.12402545 11.71484833 -21.53736594 9.64665672 -16.87060547 7.59033203 C-13.69652299 6.10881308 -10.90255319 4.22614294 -7.97265625 2.30859375 C-3.54428535 -0.58811196 -3.54428535 -0.58811196 0 0 Z M-7.2265625 6.62109375 C-8.35126953 7.25273437 -9.47597656 7.884375 -10.63476562 8.53515625 C-11.83075481 9.20958994 -13.02671802 9.88406971 -14.22265625 10.55859375 C-15.42241688 11.23326707 -16.62228529 11.90774878 -17.82226562 12.58203125 C-20.76929822 14.23899737 -23.71520257 15.89793642 -26.66015625 17.55859375 C-26.66015625 18.21859375 -26.66015625 18.87859375 -26.66015625 19.55859375 C-25.93763672 19.96996582 -25.21511719 20.38133789 -24.47070312 20.80517578 C-21.66716474 22.40220088 -18.8645119 24.00077095 -16.06204224 25.59967041 C-14.15948836 26.68397439 -12.25546958 27.76567207 -10.35131836 28.84716797 C-4.06372419 32.42514427 2.18881236 36.04473042 8.3671875 39.80859375 C9.45 40.4619873 10.5328125 41.11538086 11.6484375 41.78857422 C13.70316711 43.03301954 15.74913647 44.29206851 17.78515625 45.56689453 C18.70941406 46.1236084 19.63367187 46.68032227 20.5859375 47.25390625 C21.38700928 47.74906738 22.18808105 48.24422852 23.01342773 48.75439453 C25.34917106 49.80704563 25.34917106 49.80704563 27.81933594 48.87890625 C30.38060879 47.53723988 32.91689975 46.18286821 35.421875 44.73828125 C36.35322266 44.20332031 37.28457031 43.66835938 38.24414062 43.1171875 C39.20384766 42.56160156 40.16355469 42.00601563 41.15234375 41.43359375 C42.13138672 40.87027344 43.11042969 40.30695312 44.11914062 39.7265625 C46.5277393 38.3401496 48.9345577 36.9507432 51.33984375 35.55859375 C48.36261027 32.31490142 45.36298822 30.23442735 41.52734375 28.08984375 C39.80318237 27.11724609 39.80318237 27.11724609 38.04418945 26.125 C37.43902496 25.78742676 36.83386047 25.44985352 36.21035767 25.10205078 C33.05211873 23.34024265 29.90528346 21.55829608 26.7578125 19.77734375 C26.12852341 19.42188477 25.49923431 19.06642578 24.85087585 18.70019531 C18.19709784 14.93162285 11.64744249 10.99508034 5.11914062 7.01367188 C4.36310547 6.55412109 3.60707031 6.09457031 2.828125 5.62109375 C1.84646362 5.01974609 1.84646362 5.01974609 0.8449707 4.40625 C-2.26597518 2.65422987 -4.32229505 4.98653116 -7.2265625 6.62109375 Z M-28.66015625 20.55859375 C-27.39187899 24.36342552 -26.22894456 24.66844193 -22.7890625 26.60546875 C-21.75120605 27.19642334 -20.71334961 27.78737793 -19.64404297 28.39624023 C-18.51498535 29.02731689 -17.38592773 29.65839355 -16.22265625 30.30859375 C-15.06081949 30.96657461 -13.89953047 31.6255235 -12.73876953 32.28540039 C-10.30368303 33.66876786 -7.86622813 35.04782982 -5.42724609 36.42431641 C0.14549224 39.57489614 5.68431163 42.78426849 11.22537231 45.9901123 C14.00438159 47.59728544 16.78548255 49.20082995 19.56640625 50.8046875 C21.15755208 51.72265625 22.74869792 52.640625 24.33984375 53.55859375 C24.33984375 52.56859375 24.33984375 51.57859375 24.33984375 50.55859375 C23.61732422 50.14722168 22.89480469 49.73584961 22.15039062 49.31201172 C18.71281596 47.35381023 15.27609859 45.39410996 11.83984375 43.43359375 C10.90294205 42.89919678 10.90294205 42.89919678 9.94711304 42.35400391 C-0.22873771 36.54732635 -10.36341292 30.67477861 -20.45703125 24.72607422 C-21.39417969 24.17580566 -22.33132812 23.62553711 -23.296875 23.05859375 C-24.11889404 22.57390625 -24.94091309 22.08921875 -25.7878418 21.58984375 C-27.44988844 20.47818555 -27.44988844 20.47818555 -28.66015625 20.55859375 Z M-28.66015625 25.55859375 C-27.52342733 28.9687805 -26.92883609 29.33150583 -24.0390625 31.23828125 C-23.2773877 31.74842773 -22.51571289 32.25857422 -21.73095703 32.78417969 C-20.48934814 33.60063965 -20.48934814 33.60063965 -19.22265625 34.43359375 C-17.48039785 35.6008178 -15.73954618 36.77014394 -14 37.94140625 C-13.11038574 38.53985352 -12.22077148 39.13830078 -11.30419922 39.75488281 C-7.24018174 42.52727073 -3.26034237 45.41087081 0.71484375 48.30859375 C7.8511031 53.50108238 15.0544844 58.57726147 22.33984375 63.55859375 C22.33984375 62.56859375 22.33984375 61.57859375 22.33984375 60.55859375 C20.06413234 58.77294133 17.82082322 57.1925327 15.40234375 55.62109375 C13.92241382 54.63265224 12.44327202 53.64302991 10.96484375 52.65234375 C9.81435547 51.88664062 9.81435547 51.88664062 8.640625 51.10546875 C5.01875742 48.6703931 1.46068902 46.14769749 -2.09765625 43.62109375 C-2.78980225 43.13165283 -3.48194824 42.64221191 -4.19506836 42.13793945 C-7.95992244 39.47567149 -11.71919883 36.80563864 -15.4765625 34.1328125 C-16.26039307 33.57650146 -17.04422363 33.02019043 -17.85180664 32.44702148 C-19.3667557 31.37173612 -20.88031391 30.29448798 -22.39233398 29.21508789 C-25.2838359 26.71842363 -25.2838359 26.71842363 -28.66015625 25.55859375 Z M-28.66015625 30.55859375 C-28.33015625 31.54859375 -28.00015625 32.53859375 -27.66015625 33.55859375 C-27.00015625 33.22859375 -26.34015625 32.89859375 -25.66015625 32.55859375 C-26.65015625 31.89859375 -27.64015625 31.23859375 -28.66015625 30.55859375 Z M-25.66015625 33.55859375 C-24.34015625 35.20859375 -23.02015625 36.85859375 -21.66015625 38.55859375 C-21.00015625 38.22859375 -20.34015625 37.89859375 -19.66015625 37.55859375 C-20.94980801 36.18296521 -22.28704918 34.85092982 -23.66015625 33.55859375 C-24.32015625 33.55859375 -24.98015625 33.55859375 -25.66015625 33.55859375 Z M52.33984375 36.55859375 C44.08984375 41.50859375 35.83984375 46.45859375 27.33984375 51.55859375 C27.66984375 52.21859375 27.99984375 52.87859375 28.33984375 53.55859375 C32.35028396 51.30583207 36.34620762 49.02849278 40.33984375 46.74609375 C41.48453125 46.10349609 42.62921875 45.46089844 43.80859375 44.79882812 C44.89140625 44.17685547 45.97421875 43.55488281 47.08984375 42.9140625 C48.0953125 42.34324951 49.10078125 41.77243652 50.13671875 41.18432617 C50.86375 40.64783447 51.59078125 40.11134277 52.33984375 39.55859375 C52.33984375 38.56859375 52.33984375 37.57859375 52.33984375 36.55859375 Z M-18.66015625 39.55859375 C-17.67015625 40.87859375 -16.68015625 42.19859375 -15.66015625 43.55859375 C-15.00015625 43.22859375 -14.34015625 42.89859375 -13.66015625 42.55859375 C-15.03501157 41.01692733 -15.03501157 41.01692733 -16.66015625 39.55859375 C-17.32015625 39.55859375 -17.98015625 39.55859375 -18.66015625 39.55859375 Z M2.33984375 43.55859375 C6.31407838 47.80503623 10.62859541 51.12566181 15.40234375 54.43359375 C16.10939453 54.9440625 16.81644531 55.45453125 17.54492188 55.98046875 C18.23134766 56.45742187 18.91777344 56.934375 19.625 57.42578125 C20.2425415 57.86003418 20.86008301 58.29428711 21.49633789 58.74169922 C23.91242866 59.81231764 24.89444654 59.48415775 27.33984375 58.55859375 C28.74559342 57.88729453 30.12928 57.16855432 31.4921875 56.4140625 C32.26884766 55.98416016 33.04550781 55.55425781 33.84570312 55.11132812 C34.64814453 54.66080078 35.45058594 54.21027344 36.27734375 53.74609375 C37.47520508 53.08770508 37.47520508 53.08770508 38.69726562 52.41601562 C42.87879826 50.0844734 46.70423644 47.70945341 50.33984375 44.55859375 C46.76854769 45.12190811 44.1943437 46.01638277 41.125 47.9140625 C40.35607422 48.37103516 39.58714844 48.82800781 38.79492188 49.29882812 C37.19750664 50.26510134 35.60631361 51.24173516 34.02148438 52.22851562 C28.18133039 55.6641878 28.18133039 55.6641878 24.3203125 55.1796875 C20.34980757 53.02010749 16.44454731 50.79402114 12.58984375 48.43359375 C11.07660907 47.51039344 9.5610904 46.59092313 8.04296875 45.67578125 C7.37942383 45.26956543 6.71587891 44.86334961 6.03222656 44.44482422 C4.36294543 43.40395977 4.36294543 43.40395977 2.33984375 43.55859375 Z M-12.66015625 44.55859375 C-11.34015625 46.20859375 -10.02015625 47.85859375 -8.66015625 49.55859375 C-8.00015625 49.22859375 -7.34015625 48.89859375 -6.66015625 48.55859375 C-7.94980801 47.18296521 -9.28704918 45.85092982 -10.66015625 44.55859375 C-11.32015625 44.55859375 -11.98015625 44.55859375 -12.66015625 44.55859375 Z M37.21484375 54.43359375 C36.07917969 55.08457031 34.94351563 55.73554687 33.7734375 56.40625 C32.69964844 57.03144531 31.62585938 57.65664062 30.51953125 58.30078125 C29.52679199 58.87683105 28.53405273 59.45288086 27.51123047 60.04638672 C26.79467285 60.54541504 26.07811523 61.04444336 25.33984375 61.55859375 C25.33984375 62.21859375 25.33984375 62.87859375 25.33984375 63.55859375 C28.89562575 62.216474 32.13089542 60.63614678 35.421875 58.73828125 C36.35322266 58.20332031 37.28457031 57.66835937 38.24414062 57.1171875 C39.68370117 56.28380859 39.68370117 56.28380859 41.15234375 55.43359375 C42.13138672 54.87027344 43.11042969 54.30695312 44.11914062 53.7265625 C46.5277393 52.3401496 48.9345577 50.9507432 51.33984375 49.55859375 C51.33984375 48.89859375 51.33984375 48.23859375 51.33984375 47.55859375 C46.48730607 47.55859375 41.30708776 52.04372325 37.21484375 54.43359375 Z M-6.66015625 49.55859375 C-5.34015625 51.20859375 -4.02015625 52.85859375 -2.66015625 54.55859375 C-2.00015625 54.22859375 -1.34015625 53.89859375 -0.66015625 53.55859375 C-1.94980801 52.18296521 -3.28704918 50.85092982 -4.66015625 49.55859375 C-5.32015625 49.55859375 -5.98015625 49.55859375 -6.66015625 49.55859375 Z M-0.66015625 50.55859375 C-0.33015625 51.21859375 -0.00015625 51.87859375 0.33984375 52.55859375 C0.99984375 52.22859375 1.65984375 51.89859375 2.33984375 51.55859375 C1.34984375 51.22859375 0.35984375 50.89859375 -0.66015625 50.55859375 Z M2.33984375 52.55859375 C5.14055067 56.28629521 8.08651256 59.19911835 11.71484375 62.12109375 C12.63007812 62.86488281 13.5453125 63.60867187 14.48828125 64.375 C17.36923487 66.5811001 20.29964223 68.58111754 23.33984375 70.55859375 C26.7633135 68.61088833 30.18106753 66.65356032 33.59375 64.68701172 C35.32905662 63.68979273 37.06881718 62.70033746 38.80859375 61.7109375 C39.89140625 61.08574219 40.97421875 60.46054688 42.08984375 59.81640625 C43.0953125 59.24035645 44.10078125 58.66430664 45.13671875 58.07080078 C45.86375 57.57177246 46.59078125 57.07274414 47.33984375 56.55859375 C47.33984375 55.89859375 47.33984375 55.23859375 47.33984375 54.55859375 C44.19641579 55.66984465 41.38518743 57.06325775 38.52734375 58.7578125 C37.50253906 59.36399414 37.50253906 59.36399414 36.45703125 59.98242188 C35.04038932 60.82796369 33.62891704 61.68222499 32.22265625 62.54492188 C31.53945312 62.94517578 30.85625 63.34542969 30.15234375 63.7578125 C29.23388672 64.31214966 29.23388672 64.31214966 28.296875 64.87768555 C25.60533399 65.8141511 24.04136233 65.39760068 21.33984375 64.55859375 C19.2434082 63.34350586 19.2434082 63.34350586 17.203125 61.8359375 C16.46126953 61.29775391 15.71941406 60.75957031 14.95507812 60.20507812 C14.19517578 59.64111328 13.43527344 59.07714844 12.65234375 58.49609375 C11.13062203 57.3760964 9.60602035 56.25999805 8.078125 55.1484375 C7.40821533 54.65206787 6.73830566 54.15569824 6.0480957 53.64428711 C4.39586547 52.37979658 4.39586547 52.37979658 2.33984375 52.55859375 Z M0.33984375 55.55859375 C1.65984375 57.20859375 2.97984375 58.85859375 4.33984375 60.55859375 C4.99984375 60.22859375 5.65984375 59.89859375 6.33984375 59.55859375 C5.05019199 58.18296521 3.71295082 56.85092982 2.33984375 55.55859375 C1.67984375 55.55859375 1.01984375 55.55859375 0.33984375 55.55859375 Z M48.33984375 57.55859375 C44.32940354 59.81135543 40.33347988 62.08869472 36.33984375 64.37109375 C35.19515625 65.01369141 34.05046875 65.65628906 32.87109375 66.31835938 C31.78828125 66.94033203 30.70546875 67.56230469 29.58984375 68.203125 C28.584375 68.77393799 27.57890625 69.34475098 26.54296875 69.93286133 C25.8159375 70.46935303 25.08890625 71.00584473 24.33984375 71.55859375 C24.33984375 72.54859375 24.33984375 73.53859375 24.33984375 74.55859375 C32.58984375 69.60859375 40.83984375 64.65859375 49.33984375 59.55859375 C49.00984375 58.89859375 48.67984375 58.23859375 48.33984375 57.55859375 Z M6.33984375 60.55859375 C7.65984375 62.20859375 8.97984375 63.85859375 10.33984375 65.55859375 C10.99984375 65.22859375 11.65984375 64.89859375 12.33984375 64.55859375 C11.05019199 63.18296521 9.71295082 61.85092982 8.33984375 60.55859375 C7.67984375 60.55859375 7.01984375 60.55859375 6.33984375 60.55859375 Z M13.33984375 66.55859375 C14.32984375 67.87859375 15.31984375 69.19859375 16.33984375 70.55859375 C16.99984375 70.22859375 17.65984375 69.89859375 18.33984375 69.55859375 C16.96498843 68.01692733 16.96498843 68.01692733 15.33984375 66.55859375 C14.67984375 66.55859375 14.01984375 66.55859375 13.33984375 66.55859375 Z M19.33984375 71.55859375 C19.99984375 72.21859375 20.65984375 72.87859375 21.33984375 73.55859375 C21.33984375 72.89859375 21.33984375 72.23859375 21.33984375 71.55859375 C20.67984375 71.55859375 20.01984375 71.55859375 19.33984375 71.55859375 Z " fill="#000000" transform="translate(37.66015625,9.44140625)"/>
<path d="M0 0 C0.7832666 -0.20286621 1.5665332 -0.40573242 2.37353516 -0.61474609 C5.86814161 -1.12734035 7.21522069 -0.16319288 10.2109375 1.6484375 C11.20222656 2.23802246 12.19351563 2.82760742 13.21484375 3.43505859 C14.25769531 4.07523926 15.30054688 4.71541992 16.375 5.375 C17.44105469 6.0138916 18.50710937 6.6527832 19.60546875 7.31103516 C22.74454278 9.19514383 25.87234825 11.09701267 29 13 C30.63679609 13.9812126 32.27468107 14.96061304 33.9140625 15.9375 C37.28365377 17.94595273 40.64483516 19.96754438 44 22 C43.7215625 22.8971875 43.7215625 22.8971875 43.4375 23.8125 C42.77906313 26.16408762 42.77906313 26.16408762 44 29 C42.43805904 30.03309481 40.84859641 31.02458524 39.25 32 C38.36828125 32.556875 37.4865625 33.11375 36.578125 33.6875 C30.41736245 35.94734303 24.32351523 36.25244522 18.11962891 33.91455078 C15.21740273 32.41755971 12.45783312 30.79103917 9.6875 29.0625 C8.20515869 28.17812256 8.20515869 28.17812256 6.69287109 27.27587891 C4.71209726 26.09102363 2.73761933 24.89557084 0.77001953 23.68896484 C-1.7280644 22.16580737 -4.24549614 20.69067473 -6.78515625 19.23828125 C-8.14877858 18.45111139 -9.51208658 17.66339663 -10.875 16.875 C-11.49286377 16.52187744 -12.11072754 16.16875488 -12.74731445 15.80493164 C-16.88504276 13.34487173 -16.88504276 13.34487173 -18 10 C-17.34 10 -16.68 10 -16 10 C-16 9.34 -16 8.68 -16 8 C-16.66 8 -17.32 8 -18 8 C-16.52615049 3.57845148 -13.55389342 2.43446451 -9.63671875 0.16015625 C-6.07568061 -1.40670053 -3.71420108 -0.94675714 0 0 Z M-8.04296875 1.99609375 C-9.10451172 2.70958984 -9.10451172 2.70958984 -10.1875 3.4375 C-10.90292969 3.91058594 -11.61835938 4.38367188 -12.35546875 4.87109375 C-12.89816406 5.24363281 -13.44085938 5.61617187 -14 6 C-13.835 6.598125 -13.67 7.19625 -13.5 7.8125 C-13 10 -13 10 -13 13 C-12.36610352 13.35715088 -11.73220703 13.71430176 -11.07910156 14.08227539 C-9.19555505 15.14395113 -7.31236572 16.20626067 -5.42944336 17.26904297 C-3.30635631 18.46663166 -1.18216475 19.66226433 0.94311523 20.85595703 C9.93758505 25.92085805 9.93758505 25.92085805 13.98828125 28.45703125 C15.00277344 29.08996094 16.01726563 29.72289063 17.0625 30.375 C18.31740234 31.19097656 18.31740234 31.19097656 19.59765625 32.0234375 C22.74206593 33.30165282 24.72107397 32.67059045 28 32 C28.68578125 32.19464844 29.3715625 32.38929687 30.078125 32.58984375 C32.9300648 33.19848944 34.30628181 32.03591832 36.75 30.5625 C37.54921875 30.08941406 38.3484375 29.61632812 39.171875 29.12890625 C39.77515625 28.75636719 40.3784375 28.38382813 41 28 C40.01 26.68 39.02 25.36 38 24 C38.66 24 39.32 24 40 24 C40 23.34 40 22.68 40 22 C39.19369141 21.54149658 38.38738281 21.08299316 37.55664062 20.6105957 C34.5291808 18.88797802 31.50259414 17.16384507 28.4765625 15.4387207 C27.1735171 14.69626166 25.87013914 13.95438593 24.56640625 13.21313477 C22.67878126 12.13976519 20.79230521 11.06440643 18.90625 9.98828125 C18.29641769 9.64131195 17.68658539 9.29434265 17.05827332 8.93685913 C13.74635428 7.04143491 10.51763749 5.06450649 7.33203125 2.96484375 C3.27640026 0.57330519 1.48249806 0.94529457 -3 2 C-5.88563573 0.64922909 -5.88563573 0.64922909 -8.04296875 1.99609375 Z " fill="#000000" transform="translate(37,19)"/>
<path d="M0 0 C-0.875 5.75 -0.875 5.75 -2 8 C-6.86318895 9.17494645 -11.87072306 9.87238964 -16.57421875 7.9453125 C-18.49341884 6.72556953 -20.26833263 5.47191727 -22 4 C-21.25 -1.75 -21.25 -1.75 -19 -4 C-11.24642836 -5.88888582 -6.61217925 -4.15622695 0 0 Z M-18 -2 C-18.66 -0.35 -19.32 1.3 -20 3 C-14.8418536 6.62167726 -11.94885347 7.39880692 -5.72265625 6.359375 C-5.15417969 6.24078125 -4.58570313 6.1221875 -4 6 C-3.34 4.35 -2.68 2.7 -2 1 C-7.79424351 -2.59058175 -11.30403958 -3.43484866 -18 -2 Z " fill="#000000" transform="translate(61,34)"/>
<path d="M0 0 C2.4375 0.6875 2.4375 0.6875 4.4375 1.6875 C4.1075 2.6775 3.7775 3.6675 3.4375 4.6875 C0.625 5.3125 0.625 5.3125 -2.5625 5.6875 C-3.5525 5.0275 -4.5425 4.3675 -5.5625 3.6875 C-5.5625 3.0275 -5.5625 2.3675 -5.5625 1.6875 C-2.5625 -0.3125 -2.5625 -0.3125 0 0 Z " fill="#000000" transform="translate(64.5625,41.3125)"/>
<path d="M0 0 C0 1.32 0 2.64 0 4 C-2.8125 4.625 -2.8125 4.625 -6 5 C-6.99 4.34 -7.98 3.68 -9 3 C-8.67 2.01 -8.34 1.02 -8 0 C-5.13822943 -1.43088528 -3.06624227 -0.59991697 0 0 Z M-5 1 C-5 1.66 -5 2.32 -5 3 C-4.34 3 -3.68 3 -3 3 C-3 2.34 -3 1.68 -3 1 C-3.66 1 -4.32 1 -5 1 Z " fill="#000000" transform="translate(40,26)"/>
</svg>
