<?xml version="1.0" encoding="UTF-8"?>
<svg version="1.1" xmlns="http://www.w3.org/2000/svg" width="100" height="100">
<path d="M0 0 C0 2.97 0 5.94 0 9 C-4.455 9.495 -4.455 9.495 -9 10 C-9.25897528 17.89874607 -9.52330545 26.36347156 -4.875 33.0625 C-0.53785164 35.98536085 3.14363693 37.4907204 8.41015625 36.5859375 C12.91675752 35.25227664 15.52725718 34.1580348 18 30 C19.93293768 23.43628114 20.22279595 16.79527634 20 10 C17.03 9.67 14.06 9.34 11 9 C11 6.03 11 3.06 11 0 C21.89588592 -0.3757202 21.89588592 -0.3757202 26.63867188 3.25415039 C29.45049486 6.86020242 28.52570675 12.05318101 28.5 16.4375 C28.49500488 17.52538818 28.49000977 18.61327637 28.48486328 19.73413086 C28.25469399 30.32588656 26.06562599 38.6726145 18.625 46.59765625 C15.96195199 48.89581547 13.14214714 50.42892643 10 52 C10.93445435 58.02203913 12.23443261 61.15090241 17.140625 64.87109375 C21.0778331 67.26154152 24.04081748 67.13702607 28.5 66.5 C32.89017815 64.61849508 35.63279715 62.16246407 38 58 C39.04113641 53.51168634 39.25437466 49.03518113 39.375 44.4375 C39.42398438 43.15746094 39.47296875 41.87742188 39.5234375 40.55859375 C38.87000232 36.11620983 37.23031073 34.9744942 34 32 C33.09358204 28.88618773 33.30943121 26.15607058 34 23 C35.9375 19.9375 35.9375 19.9375 39 18 C43.75058323 16.96054146 46.94141507 17.330283 51.0625 19.9375 C53.29844352 23.47173331 53.59207226 25.6297046 53.6640625 29.71875 C53 32 53 32 50.49609375 34.10546875 C46.79465408 38.39774855 47.36828375 42.32255866 47.4375 47.8125 C47.51091484 56.22132233 46.90027814 62.4802146 41.25390625 69.0234375 C40.69574219 69.46945313 40.13757813 69.91546875 39.5625 70.375 C38.72912109 71.06722656 38.72912109 71.06722656 37.87890625 71.7734375 C31.65471257 75.83663254 25.20751893 75.68933898 18 75 C10.99260175 73.10641503 6.49713335 68.15064057 2.84375 62.078125 C1.85851116 59.65151823 1.79829614 57.85793114 1.875 55.25 C1.89304687 54.45078125 1.91109375 53.6515625 1.9296875 52.828125 C1.95289062 52.22484375 1.97609375 51.6215625 2 51 C1.154375 50.79375 0.30875 50.5875 -0.5625 50.375 C-7.33575215 47.66569914 -10.83445247 43.93686293 -13.875 37.3125 C-16.81186835 30.28152048 -17.24602876 24.63578987 -17.3125 17.0625 C-17.34150391 15.96486328 -17.37050781 14.86722656 -17.40039062 13.73632812 C-17.40876953 12.67994141 -17.41714844 11.62355469 -17.42578125 10.53515625 C-17.44765503 9.08701538 -17.44765503 9.08701538 -17.4699707 7.60961914 C-16.86665929 4.2595954 -15.61559755 3.10450031 -13 1 C-8.78773524 -0.40408825 -4.39511984 -0.07449356 0 0 Z M-7 2 C-7 3.65 -7 5.3 -7 7 C-5.35 7 -3.7 7 -2 7 C-1.40929986 5.05396726 -1.40929986 5.05396726 -1 3 C-2.06645115 1.70366379 -2.06645115 1.70366379 -4.5625 1.9375 C-5.366875 1.958125 -6.17125 1.97875 -7 2 Z M13 2 C12.40929986 3.94603274 12.40929986 3.94603274 12 6 C13.06645115 7.29633621 13.06645115 7.29633621 15.5625 7.0625 C16.366875 7.041875 17.17125 7.02125 18 7 C18 5.35 18 3.7 18 2 C16.35 2 14.7 2 13 2 Z M-14 6 C-17.31494244 15.19752815 -14.7264057 27.81333127 -10.8125 36.375 C-7.8314068 41.83594064 -4.1348907 46.06620277 1.9375 47.875 C2.618125 47.91625 3.29875 47.9575 4 48 C4.03738281 48.65226562 4.07476562 49.30453125 4.11328125 49.9765625 C4.7332485 58.21848008 6.55949967 63.45817414 13 69 C17.73206129 71.81910034 21.88013309 73.56268131 27.42578125 72.5625 C32.91401701 71.13149334 36.35403809 69.52983146 40 65 C40.556875 64.4225 41.11375 63.845 41.6875 63.25 C46.25537962 55.41934922 45.20699588 45.72832608 45 37 C44.01 37 43.02 37 42 37 C41.9906543 37.63502441 41.98130859 38.27004883 41.97167969 38.92431641 C41.91771267 41.825308 41.83411873 44.72473244 41.75 47.625 C41.73582031 48.62402344 41.72164062 49.62304688 41.70703125 50.65234375 C41.45133908 58.37424717 40.14417381 61.93644603 34.5625 67.375 C29.10238421 69.86557913 23.90088116 69.73667051 18 69 C13.07598901 66.7539599 10.37950487 63.84713955 8 59 C7.39883854 55.33746167 7.13192351 51.70705058 7 48 C7.7425 47.89300781 8.485 47.78601562 9.25 47.67578125 C13.98053827 46.51330523 16.89853371 43.66536926 20 40 C23.75586143 33.3464961 25.80710396 26.61939371 26 19 C26.03867187 18.21496094 26.07734375 17.42992187 26.1171875 16.62109375 C26.24253698 12.39403082 26.31135825 8.6981732 24 5 C21.95894361 4.11306697 21.95894361 4.11306697 20 4 C20 4.66 20 5.32 20 6 C20.66 6.33 21.32 6.66 22 7 C22.85875086 30.93272602 22.85875086 30.93272602 15.9375 41 C12.60910865 44.43575882 10.36625716 45.32748773 5.6875 45.4375 C1.66749059 45.34734148 0.13393542 45.07792606 -3.4375 43 C-8.53615633 37.03084137 -11.14561948 30.88159515 -11.09765625 23.015625 C-11.09282227 21.61376953 -11.09282227 21.61376953 -11.08789062 20.18359375 C-11.07951172 19.21550781 -11.07113281 18.24742188 -11.0625 17.25 C-11.05798828 16.26644531 -11.05347656 15.28289063 -11.04882812 14.26953125 C-11.03706483 11.84629209 -11.02062684 9.42317727 -11 7 C-10.34 6.67 -9.68 6.34 -9 6 C-9 5.34 -9 4.68 -9 4 C-11.32357511 3.81509993 -11.32357511 3.81509993 -14 6 Z M38.0625 22.0625 C36.3859371 25.11976176 36.63471023 27.5906288 37 31 C37.91666667 33.08333333 37.91666667 33.08333333 40 34 C43.4093712 34.36528977 45.88023824 34.6140629 48.9375 32.9375 C50.6140629 29.88023824 50.36528977 27.4093712 50 24 C49.08333333 21.91666667 49.08333333 21.91666667 47 21 C43.5906288 20.63471023 41.11976176 20.3859371 38.0625 22.0625 Z M-3 38 C1.25884484 43.21183261 1.25884484 43.21183261 5.5 43.625 C9.74115516 43.21183261 9.74115516 43.21183261 14 38 C8.39 38 2.78 38 -3 38 Z " fill="#000000" transform="translate(32,11)"/>
<path d="M0 0 C1.32 0 2.64 0 4 0 C4 0.66 4 1.32 4 2 C3.01 2 2.02 2 1 2 C1 3.65 1 5.3 1 7 C2.65 7 4.3 7 6 7 C6 7.66 6 8.32 6 9 C4.00045254 9.04254356 1.99958364 9.04080783 0 9 C-1 8 -1 8 -1.125 4.5 C-1 1 -1 1 0 0 Z " fill="#000000" transform="translate(72,34)"/>
<path d="M0 0 C0.66 0 1.32 0 2 0 C2.33 1.98 2.66 3.96 3 6 C2.34 6 1.68 6 1 6 C0.67 4.02 0.34 2.04 0 0 Z " fill="#000000" transform="translate(77,34)"/>
</svg>
